<?xml version="1.0" standalone="no"?>
<!DOCTYPE svg PUBLIC "-//W3C//DTD SVG 20010904//EN"
 "http://www.w3.org/TR/2001/REC-SVG-20010904/DTD/svg10.dtd">
<svg version="1.0" xmlns="http://www.w3.org/2000/svg"
 width="500.000000pt" height="500.000000pt" viewBox="0 0 500.000000 500.000000"
 preserveAspectRatio="xMidYMid meet">
<metadata>
Created by potrace 1.14, written by Peter Selinger 2001-2017
</metadata>
<g transform="translate(0.000000,500.000000) scale(0.100000,-0.100000)"
fill="#000000" stroke="none">
<path d="M2649 4740 c-20 -3 -53 -16 -75 -27 -77 -40 -343 -234 -372 -271 -16
-20 -44 -82 -62 -137 -18 -55 -37 -103 -43 -106 -5 -4 -32 -10 -60 -13 -28 -4
-59 -11 -68 -17 -18 -9 -56 19 -214 159 -198 175 -285 215 -415 190 -46 -8
-143 -59 -195 -101 -5 -5 -55 -39 -110 -77 -161 -111 -190 -151 -190 -260 0
-52 6 -78 32 -132 36 -76 106 -157 173 -199 47 -30 45 -34 -21 -42 -24 -3 -78
-32 -160 -87 -184 -123 -226 -156 -240 -188 -8 -18 -47 -53 -106 -93 -51 -35
-101 -70 -111 -77 -9 -7 -96 -66 -192 -133 -185 -127 -220 -158 -220 -191 0
-25 203 -627 221 -656 15 -24 63 -47 77 -38 5 3 32 8 59 12 l49 6 66 -199 c68
-201 379 -1121 512 -1513 93 -271 91 -267 117 -281 20 -10 77 -8 149 6 13 2
42 7 65 10 22 3 47 8 55 10 8 2 33 6 55 10 40 6 259 42 305 51 74 13 220 37
290 47 3 0 17 -5 32 -13 22 -10 41 -11 95 -1 38 6 79 14 93 16 318 51 334 55
370 79 34 23 104 40 255 63 28 4 370 60 515 84 36 6 75 15 87 20 13 5 133 85
268 178 134 93 257 172 272 174 47 8 63 17 223 130 98 68 163 121 176 142 11
19 56 59 100 89 43 30 117 81 164 113 211 144 296 205 308 220 6 9 12 29 12
44 0 25 -100 329 -359 1094 -189 556 -291 864 -291 877 0 7 14 22 31 32 55 32
100 85 94 109 -28 106 -212 638 -227 657 -15 19 -30 25 -61 25 -38 0 -100 -8
-152 -18 -11 -3 -40 -8 -65 -12 -75 -12 -93 -15 -150 -25 -30 -5 -75 -12 -100
-15 -25 -3 -61 -10 -80 -15 -19 -5 -62 -12 -94 -15 -33 -3 -62 -8 -65 -10 -6
-3 -14 -4 -151 -26 -41 -6 -82 -13 -90 -14 -8 -1 -26 3 -40 10 -24 11 -37 12
-105 2 -29 -4 -30 -3 -42 56 -7 34 -25 85 -40 116 -60 119 -218 195 -354 171z
m-91 -273 c48 -23 96 -68 118 -108 13 -26 12 -27 -16 -39 -17 -7 -30 -16 -30
-20 0 -4 -19 -13 -42 -19 -40 -11 -201 -40 -205 -37 0 0 10 35 23 76 14 41 27
86 30 99 3 13 12 37 20 53 17 33 28 32 102 -5z m-1329 -206 c31 -16 142 -99
161 -121 3 -3 32 -29 66 -58 55 -47 81 -88 48 -75 -7 3 -28 -7 -47 -21 -40
-31 -39 -31 -85 -9 -82 36 -184 174 -199 268 -7 41 1 43 56 16z m353 -285 l37
-34 -37 3 c-20 2 -39 4 -42 5 -3 1 -7 2 -10 2 -3 0 -6 8 -6 19 0 14 5 18 21
13 20 -6 20 -6 0 10 -11 8 -15 15 -10 16 6 0 27 -15 47 -34z"/>
</g>
</svg>
